<svg width="150" height="150" viewBox="0 0 150 150" fill="none" xmlns="http://www.w3.org/2000/svg">
<g clip-path="url(#clip0)">
<path d="M75 108.333V109.167M74.1667 7.5C56.3381 7.72012 39.3208 14.9853 26.8304 27.7091C14.34 40.433 7.39122 57.5819 7.50129 75.4115C7.61135 93.2411 14.7713 110.303 27.4178 122.872C40.0644 135.44 57.1701 142.495 75 142.495C92.8299 142.495 109.936 135.44 122.582 122.872C135.229 110.303 142.389 93.2411 142.499 75.4115C142.609 57.5819 135.66 40.433 123.17 27.7091C110.679 14.9853 93.6619 7.72012 75.8333 7.5H74.1667ZM75 39.1667V87.5V39.1667Z" stroke="#BF77FF" stroke-width="16" stroke-linecap="round"/>
</g>
<defs>
<clipPath id="clip0">
<rect width="150" height="150" fill="white"/>
</clipPath>
</defs>
</svg>
