<svg width="150" height="155" viewBox="0 0 150 155" fill="none" xmlns="http://www.w3.org/2000/svg">
<path d="M50.1714 120.181C50.1714 120.786 49.4758 121.27 48.5988 121.27C47.6008 121.361 46.9052 120.877 46.9052 120.181C46.9052 119.577 47.6008 119.093 48.4778 119.093C49.3851 119.002 50.1714 119.486 50.1714 120.181ZM40.7661 118.821C40.5544 119.425 41.1593 120.121 42.0665 120.302C42.8528 120.605 43.7601 120.302 43.9415 119.698C44.123 119.093 43.5484 118.397 42.6411 118.125C41.8548 117.913 40.9778 118.216 40.7661 118.821ZM54.1331 118.306C53.2561 118.518 52.6512 119.093 52.7419 119.788C52.8327 120.393 53.619 120.786 54.5262 120.575C55.4032 120.363 56.0081 119.788 55.9173 119.183C55.8266 118.609 55.0101 118.216 54.1331 118.306ZM74.0323 2.41937C32.0867 2.41937 0 34.2641 0 76.2097C0 109.748 21.1089 138.448 51.2601 148.548C55.1311 149.244 56.4919 146.855 56.4919 144.889C56.4919 143.014 56.4012 132.671 56.4012 126.321C56.4012 126.321 35.2319 130.857 30.7863 117.308C30.7863 117.308 27.3387 108.508 22.379 106.24C22.379 106.24 15.4536 101.492 22.8629 101.583C22.8629 101.583 30.3931 102.188 34.5363 109.385C41.1593 121.058 52.2581 117.702 56.5827 115.706C57.2782 110.867 59.244 107.51 61.4214 105.514C44.5161 103.639 27.4597 101.19 27.4597 72.0968C27.4597 63.7803 29.7581 59.6069 34.5968 54.2843C33.8105 52.3186 31.2399 44.2137 35.3831 33.75C41.7036 31.7843 56.25 41.9153 56.25 41.9153C62.2984 40.2218 68.8004 39.3448 75.2419 39.3448C81.6835 39.3448 88.1855 40.2218 94.2339 41.9153C94.2339 41.9153 108.78 31.7541 115.101 33.75C119.244 44.244 116.673 52.3186 115.887 54.2843C120.726 59.6371 123.69 63.8105 123.69 72.0968C123.69 101.28 105.877 103.609 88.9718 105.514C91.754 107.903 94.1129 112.44 94.1129 119.546C94.1129 129.738 94.0222 142.349 94.0222 144.829C94.0222 146.794 95.4133 149.183 99.254 148.488C129.496 138.448 150 109.748 150 76.2097C150 34.2641 115.978 2.41937 74.0323 2.41937ZM29.3952 106.724C29.002 107.026 29.0927 107.722 29.6069 108.296C30.0907 108.78 30.7863 108.992 31.1794 108.599C31.5726 108.296 31.4819 107.601 30.9677 107.026C30.4839 106.542 29.7883 106.331 29.3952 106.724ZM26.129 104.274C25.9173 104.667 26.2198 105.151 26.8246 105.454C27.3085 105.756 27.9133 105.665 28.125 105.242C28.3367 104.849 28.0343 104.365 27.4294 104.063C26.8246 103.881 26.3407 103.972 26.129 104.274ZM35.9274 115.04C35.4436 115.433 35.625 116.341 36.3206 116.915C37.0161 117.611 37.8931 117.702 38.2863 117.218C38.6794 116.825 38.498 115.917 37.8931 115.343C37.2278 114.647 36.3206 114.556 35.9274 115.04ZM32.4798 110.595C31.996 110.897 31.996 111.683 32.4798 112.379C32.9637 113.075 33.7802 113.377 34.1734 113.075C34.6573 112.681 34.6573 111.895 34.1734 111.2C33.75 110.504 32.9637 110.202 32.4798 110.595Z" fill="#BF77FF"/>
</svg>
