<svg xmlns="http://www.w3.org/2000/svg" viewBox="0 0 112 48"><path class="cls-1" d="M111.36 17.09q-.58 4.41-4.9 4.41a5.13 5.13 0 01-3.55-1.18A4.2 4.2 0 01101.6 17V9.7h-2V7.25h2V2.93h3.31v4.32h5.18V9.7h-5.18v6.8c0 1.47.64 2.21 1.93 2.21a2.31 2.31 0 001.17-.39c.44-.26.74-.93.9-2zM95.21 7a4.74 4.74 0 012.61.78l.59 4.35-2.58.31-.52-2.4a2.61 2.61 0 00-1.06-.31 1.93 1.93 0 00-1.5.72 2.9 2.9 0 00-.64 2v6.18h2.76v2.54h-8.15v-2.52h2.08V9.83h-2.17V7.25h5.24v2.61a4.75 4.75 0 011.19-2A2.93 2.93 0 0195.21 7zm-13.63 7.14a4.91 4.91 0 00-1.07-3.41 3.58 3.58 0 00-2.78-1.18A3.33 3.33 0 0075 10.8a5.32 5.32 0 00-1 3.37 5.76 5.76 0 001 3.36 3.18 3.18 0 002.8 1.37 3.37 3.37 0 002.82-1.32 5.48 5.48 0 00.96-3.44zm3.44.1A7 7 0 0183 19.5a7.31 7.31 0 01-5.34 2 7 7 0 01-5.13-1.92 7 7 0 01-1.94-5.22 7.89 7.89 0 011.83-5.23 6.67 6.67 0 015.42-2.19 6.64 6.64 0 015.43 2.17A7.8 7.8 0 0185 14.24zm-19.59 0a5 5 0 00-1-3.41 3.31 3.31 0 00-2.6-1.16 3.11 3.11 0 00-2.63 1.27 5.23 5.23 0 00-1 3v1.09a3.91 3.91 0 001 2.8 3.42 3.42 0 002.59 1 3.27 3.27 0 002.74-1.24 5.35 5.35 0 00.9-3.38zm3.44-.35a9.24 9.24 0 01-1.57 5.31 5.38 5.38 0 01-4.82 2.33 4.77 4.77 0 01-4.37-2.17v5.84h2.76v2.61h-8.15V25.2h2.08V9.8h-2.17V7.25h5.48V10a6.1 6.1 0 011.72-2.14A4.8 4.8 0 0162.89 7a5.56 5.56 0 014.32 1.82 7.22 7.22 0 011.66 5.04zM48 14.21a5 5 0 00-1-3.41 3.34 3.34 0 00-2.61-1.16 3.11 3.11 0 00-2.63 1.27 5.23 5.23 0 00-1 3V15a3.91 3.91 0 001 2.8 3.44 3.44 0 002.59 1A3.27 3.27 0 0047 17.59a5.35 5.35 0 001-3.38zm3.44-.35a9.24 9.24 0 01-1.57 5.31A5.38 5.38 0 0145 21.5a4.77 4.77 0 01-4.37-2.17v5.87h2.76v2.61h-8.12V25.2h2.08V9.8h-2.17V7.25h5.48V10a6.1 6.1 0 011.72-2.14A4.8 4.8 0 0145.44 7a5.56 5.56 0 014.32 1.82 7.22 7.22 0 011.66 5.04zm-17.07 7.33h-5.48v-2.33a4.77 4.77 0 01-4.59 2.61 5.26 5.26 0 01-3.43-1.19 4.69 4.69 0 01-1.44-3.81V9.8h-2.07V7.25h5.39v8a4.34 4.34 0 00.71 2.81 2.54 2.54 0 002 .83 3.07 3.07 0 002.46-1.09 4 4 0 00.95-2.58V9.8h-2.46V7.25h5.79v11.4h2.17zm-18.5-5.93a5.52 5.52 0 01-2.09 4.63 8.81 8.81 0 01-5.54 1.61 15.66 15.66 0 01-3.95-.5 7.66 7.66 0 01-3-1.43L1.83 15l2.76.28-.06 2.49a6.29 6.29 0 001.87.66 9.2 9.2 0 001.6.14 7 7 0 003-.57 2.33 2.33 0 001.19-2.32 2.51 2.51 0 00-1.36-2.53 13.87 13.87 0 00-3.13-1 25.05 25.05 0 01-2.89-.74 5.33 5.33 0 01-2.42-1.58 4.71 4.71 0 01-1-3.2 5 5 0 012.19-4.55A8.76 8.76 0 018.4.69a11.89 11.89 0 013.6.56 7.43 7.43 0 012.74 1.46l.2 4.29-2.76.25-.28-2.64a6.38 6.38 0 00-1.73-.69 8.29 8.29 0 00-1.68-.18 4.61 4.61 0 00-2.42.59 2 2 0 00-1 1.89 2.05 2.05 0 001.2 2.07A13.59 13.59 0 009 9.17q1.28.28 2.88.75a6.4 6.4 0 012.81 1.66 5 5 0 011.18 3.68zM54.06 43a.8.8 0 01-.9-.89c0-.84.68-1.06 1.47-1.06a8.48 8.48 0 011.11.1A1.72 1.72 0 0154.06 43zm4.72.05a1 1 0 01-.32 0c-.36 0-.53-.15-.53-.6v-3.31c0-1.76-1.41-2.62-3.07-2.62a7.55 7.55 0 00-3.3.7L51.29 39l1.76.18.26-.87a2.38 2.38 0 011.18-.22c1.25 0 1.26.94 1.26 1.73v.25a10.23 10.23 0 00-1.26-.07c-1.76 0-3.59.44-3.59 2.34a2.17 2.17 0 002.37 2.21A2.78 2.78 0 0055.75 43a1.58 1.58 0 001.7 1.54 2.87 2.87 0 001.38-.36zM51.1 32.61h-2.17L45.6 44.38h2.17zm-4.48 0h-2.17l-3.33 11.77h2.17zm-9.23 6.84h2.31v-2.77h-2.31zm0 4.95h2.31v-2.77h-2.31zM34 41.52l-.36 1.2h-2.47l4.27-4.88-.17-1.16h-6.75l-.28 2.7 1.59.17.35-1.2h2.41l-4.24 4.89.22 1.16h6.72l.48-2.7zm-11.06 1.34c-1.19 0-1.81-1-1.81-2.36s.7-2.3 1.83-2.3 1.88.7 1.88 2.26-.75 2.4-1.9 2.4zm.06-6.34a3.87 3.87 0 00-4.14 4.13 3.71 3.71 0 004 3.92 3.92 3.92 0 004.24-4 3.83 3.83 0 00-4.1-4.05zm-6.13 6.19v-3.52a2.5 2.5 0 00-2.65-2.67 2.57 2.57 0 00-2.51 1.66 2.51 2.51 0 00-2.52-1.66 2.56 2.56 0 00-2.34 1.32v-1.16H3.66v1.67h1v4.37h-1v1.68h4.68v-1.68H6.87V40c0-1.08.43-1.83 1.49-1.83.87 0 1.32.51 1.32 1.85v4.38h3.23v-1.68h-1V40c0-1.08.43-1.83 1.49-1.83.87 0 1.32.51 1.32 1.85v4.33h3.18v-1.64zM0 48V30.37h61.55V48z"/></svg>