<svg width="175" height="75" viewBox="0 0 175 75" fill="none" xmlns="http://www.w3.org/2000/svg">
<g clip-path="url(#clip0)">
<path d="M174 26.7031C173.396 31.2969 170.844 33.5937 166.344 33.5937C164.329 33.6993 162.348 33.0409 160.797 31.75C160.096 31.0887 159.549 30.2811 159.195 29.3845C158.841 28.4879 158.689 27.5244 158.75 26.5625V15.1562H155.625V11.3281H158.75V4.57812H163.922V11.3281H172.016V15.1562H163.922V25.7812C163.922 28.0781 164.922 29.2344 166.937 29.2344C167.591 29.2007 168.223 28.99 168.766 28.625C169.453 28.2187 169.922 27.1719 170.172 25.5L174 26.7031ZM148.766 10.9375C150.215 10.936 151.633 11.3597 152.844 12.1562L153.766 18.9531L149.734 19.4375L148.922 15.6875C148.411 15.4097 147.846 15.2446 147.266 15.2031C146.816 15.204 146.372 15.3054 145.966 15.5001C145.561 15.6947 145.204 15.9777 144.922 16.3281C144.21 17.2083 143.853 18.3231 143.922 19.4531V29.1094H148.234V33.0781H135.5V29.1406H138.75V15.3594H135.359V11.3281H143.547V15.4062C143.898 14.2265 144.537 13.1526 145.406 12.2812C145.846 11.8408 146.37 11.4945 146.948 11.2634C147.525 11.0324 148.144 10.9215 148.766 10.9375V10.9375ZM127.469 22.0937C127.601 20.1707 127.004 18.2686 125.797 16.7656C125.251 16.1604 124.579 15.6818 123.829 15.3633C123.079 15.0448 122.268 14.8942 121.453 14.9219C120.639 14.8907 119.829 15.0511 119.088 15.3904C118.347 15.7296 117.696 16.2382 117.188 16.875C116.085 18.4025 115.534 20.2591 115.625 22.1406C115.588 24.0105 116.134 25.8455 117.188 27.3906C117.672 28.093 118.328 28.6589 119.095 29.0338C119.861 29.4087 120.711 29.58 121.563 29.5312C122.409 29.5672 123.251 29.3984 124.018 29.0394C124.785 28.6803 125.454 28.1415 125.969 27.4687C127.055 25.8948 127.583 24.0026 127.469 22.0937V22.0937ZM132.844 22.25C132.916 23.7638 132.672 25.2761 132.129 26.691C131.586 28.1058 130.754 29.3922 129.688 30.4687C128.577 31.5221 127.266 32.3415 125.833 32.8784C124.4 33.4152 122.873 33.6585 121.344 33.5937C119.875 33.6582 118.408 33.4258 117.03 32.9103C115.653 32.3949 114.394 31.607 113.328 30.5937C112.292 29.514 111.488 28.233 110.967 26.83C110.445 25.4271 110.217 23.9321 110.297 22.4375C110.231 19.4574 111.247 16.5543 113.156 14.2656C114.215 13.0897 115.528 12.1704 116.996 11.5775C118.463 10.9846 120.046 10.7337 121.625 10.8437C123.204 10.7239 124.79 10.9671 126.261 11.5548C127.731 12.1425 129.048 13.0591 130.109 14.2344C131.939 16.4978 132.897 19.3411 132.812 22.25H132.844ZM102.234 22.25C102.384 20.3425 101.828 18.4467 100.672 16.9219C100.172 16.3365 99.5483 15.8701 98.8455 15.5565C98.1426 15.243 97.3787 15.0902 96.6094 15.1094C95.8143 15.0784 95.0238 15.2432 94.3073 15.5892C93.5907 15.9352 92.9702 16.4518 92.5 17.0937C91.508 18.4576 90.9622 20.0949 90.9375 21.7812V23.4844C90.8619 25.0916 91.4234 26.6637 92.5 27.8594C93.0278 28.3883 93.6607 28.8006 94.3578 29.0697C95.0548 29.3389 95.8006 29.4588 96.5469 29.4219C97.3635 29.4651 98.1785 29.3117 98.9235 28.9745C99.6684 28.6374 100.322 28.1263 100.828 27.4844C101.875 25.9312 102.371 24.0714 102.234 22.2031V22.25ZM107.609 21.7031C107.659 24.6545 106.803 27.5502 105.156 30C104.328 31.2114 103.197 32.1849 101.876 32.8236C100.554 33.4623 99.0889 33.744 97.625 33.6406C96.287 33.7424 94.9464 33.4812 93.7446 32.8844C92.5428 32.2876 91.5244 31.3775 90.7969 30.25V39.375H95.1094V43.4531H82.375V39.375H85.625V15.3125H82.2344V11.3281H90.7969V15.625C91.427 14.3207 92.3461 13.1771 93.4844 12.2812C94.8793 11.3033 96.5655 10.8294 98.2656 10.9375C99.5299 10.8914 100.789 11.122 101.955 11.6132C103.121 12.1044 104.165 12.8443 105.016 13.7812C106.848 15.9819 107.776 18.7972 107.609 21.6562V21.7031ZM75 22.2031C75.1492 20.2957 74.5932 18.3998 73.4375 16.875C72.934 16.2902 72.3071 15.8243 71.602 15.5108C70.8968 15.1974 70.1309 15.0443 69.3594 15.0625C68.5643 15.0315 67.7738 15.1963 67.0573 15.5423C66.3407 15.8883 65.7202 16.4049 65.25 17.0469C64.2579 18.4107 63.7122 20.0481 63.6875 21.7344V23.4375C63.6119 25.0447 64.1734 26.6168 65.25 27.8125C65.779 28.3398 66.412 28.7511 67.1088 29.0201C67.8056 29.2892 68.5508 29.41 69.2969 29.375C70.0862 29.4013 70.8709 29.2443 71.5894 28.9163C72.3078 28.5882 72.9404 28.0981 73.4375 27.4844C74.54 25.951 75.0907 24.0895 75 22.2031V22.2031ZM80.375 21.6562C80.4247 24.6076 79.5685 27.5033 77.9219 29.9531C77.0868 31.1766 75.9432 32.1577 74.6069 32.797C73.2706 33.4363 71.7892 33.7112 70.3125 33.5937C68.9745 33.6956 67.6339 33.4343 66.4321 32.8375C65.2303 32.2408 64.2119 31.3306 63.4844 30.2031V39.375H67.7969V43.4531H55.1094V39.375H58.3594V15.3125H54.9688V11.3281H63.5312V15.625C64.1614 14.3207 65.0805 13.1771 66.2188 12.2812C67.6136 11.3033 69.2999 10.8294 71 10.9375C72.2643 10.8914 73.5234 11.122 74.6894 11.6132C75.8553 12.1044 76.8998 12.8443 77.75 13.7812C79.5828 15.9819 80.5101 18.7972 80.3437 21.6562H80.375ZM53.7031 33.1094H45.1406V29.4687C44.4795 30.7791 43.4463 31.8652 42.1704 32.5907C40.8946 33.3162 39.4329 33.6488 37.9687 33.5469C36.0182 33.5828 34.1185 32.9237 32.6094 31.6875C31.8109 30.9282 31.194 29.9986 30.8044 28.9679C30.4148 27.9372 30.2627 26.832 30.3594 25.7344V15.3125H27.125V11.3281H35.5469V23.8281C35.4026 25.3755 35.7943 26.9256 36.6562 28.2187C37.0494 28.6518 37.5334 28.9927 38.0736 29.2169C38.6139 29.4411 39.197 29.5431 39.7812 29.5156C40.5092 29.5422 41.2337 29.4027 41.8996 29.1076C42.5656 28.8125 43.1557 28.3696 43.625 27.8125C44.5806 26.6863 45.1064 25.2582 45.1094 23.7812V15.3125H41.2656V11.3281H50.3125V29.1406H53.7031V33.1094ZM24.7969 23.8437C24.8716 25.223 24.614 26.6 24.0457 27.8589C23.4774 29.1178 22.6151 30.2219 21.5312 31.0781C19.01 32.8644 15.961 33.7505 12.875 33.5937C10.7928 33.597 8.7188 33.3344 6.70312 32.8125C4.99594 32.4197 3.39578 31.657 2.01562 30.5781L2.85938 23.4375L7.17188 23.875L7.07813 27.7656C7.99143 28.2617 8.97764 28.6098 10 28.7969C10.8254 28.9425 11.6619 29.0157 12.5 29.0156C14.109 29.0673 15.7096 28.7632 17.1875 28.125C17.8235 27.775 18.3404 27.2429 18.6717 26.5969C19.003 25.951 19.1337 25.2207 19.0469 24.5C19.1397 23.7028 18.9857 22.8963 18.6057 22.1894C18.2257 21.4825 17.638 20.9092 16.9219 20.5469C15.3593 19.8341 13.7176 19.3096 12.0312 18.9844C10.5044 18.689 8.99653 18.3029 7.51562 17.8281C6.0519 17.3692 4.74337 16.5148 3.73438 15.3594C2.61792 13.9408 2.06183 12.1613 2.17187 10.3594C2.06004 8.9773 2.31804 7.59037 2.9194 6.34097C3.52075 5.09158 4.4438 4.02474 5.59375 3.24999C7.83877 1.80735 10.4565 1.05243 13.125 1.07812C15.0338 1.07908 16.9311 1.37421 18.75 1.95312C20.3218 2.40356 21.7807 3.18095 23.0312 4.23437L23.3437 10.9375L19.0313 11.3281L18.5937 7.20312C17.7503 6.71345 16.8396 6.3502 15.8906 6.12499C15.0275 5.94209 14.1479 5.84785 13.2656 5.84374C11.9445 5.79825 10.6363 6.11718 9.48438 6.76562C8.97118 7.05956 8.55193 7.49309 8.27534 8.01584C7.99875 8.53859 7.87619 9.1291 7.92188 9.71874C7.8564 10.3863 8.00215 11.0576 8.33855 11.6379C8.67496 12.2182 9.18505 12.6782 9.79687 12.9531C11.1663 13.5606 12.5961 14.0215 14.0625 14.3281C15.3958 14.6198 16.8958 15.0104 18.5625 15.5C20.2256 15.9706 21.7383 16.8643 22.9531 18.0937C23.6266 18.8819 24.1364 19.7962 24.453 20.7834C24.7695 21.7706 24.8864 22.8109 24.7969 23.8437ZM84.4688 67.1875C84.2795 67.2128 84.0869 67.1944 83.9059 67.1337C83.7248 67.0729 83.5601 66.9716 83.4243 66.8373C83.2886 66.703 83.1854 66.5395 83.1226 66.3591C83.0599 66.1787 83.0393 65.9864 83.0625 65.7969C83.0625 64.4844 84.125 64.1406 85.3594 64.1406C85.9403 64.1546 86.5197 64.2068 87.0938 64.2969C87.1215 64.6613 87.0745 65.0275 86.9559 65.3732C86.8372 65.7189 86.6492 66.0367 86.4035 66.3073C86.1578 66.5779 85.8595 66.7955 85.5269 66.9468C85.1942 67.0982 84.8342 67.18 84.4688 67.1875ZM91.8437 67.2656C91.6782 67.2925 91.5093 67.2925 91.3437 67.2656C90.7812 67.2656 90.5156 67.0312 90.5156 66.3281V61.1562C90.5156 58.4062 88.3125 57.0625 85.7188 57.0625C83.9395 57.0335 82.1768 57.4074 80.5625 58.1562L80.1406 60.9375L82.8906 61.2187L83.2969 59.8594C83.872 59.5891 84.5068 59.4708 85.1406 59.5156C87.0938 59.5156 87.1094 60.9844 87.1094 62.2187V62.6094C86.456 62.5324 85.7985 62.4959 85.1406 62.5C82.3906 62.5 79.5313 63.1875 79.5313 66.1562C79.5204 66.6343 79.6108 67.1092 79.7964 67.5499C79.9821 67.9905 80.2589 68.3869 80.6086 68.713C80.9584 69.0391 81.3731 69.2876 81.8256 69.4421C82.2782 69.5966 82.7582 69.6536 83.2344 69.6094C84.0415 69.6056 84.8316 69.3769 85.5161 68.9492C86.2005 68.5214 86.7523 67.9113 87.1094 67.1875C87.1169 67.5228 87.1927 67.8531 87.332 68.1581C87.4714 68.4632 87.6715 68.7366 87.9201 68.9618C88.1686 69.187 88.4605 69.3592 88.7778 69.4678C89.0951 69.5765 89.4312 69.6193 89.7656 69.5937C90.5203 69.5907 91.2619 69.3972 91.9219 69.0312L91.8437 67.2656ZM79.8437 50.9531H76.4531L71.25 69.3437H74.6406L79.8437 50.9531ZM72.8437 50.9531H69.4531L64.25 69.3437H67.6406L72.8437 50.9531ZM58.4219 61.6406H62.0313V57.3125H58.4219V61.6406ZM58.4219 69.375H62.0313V65.0469H58.4219V69.375ZM53.125 64.875L52.5625 66.75H48.7031L55.375 59.125L55.1094 57.3125H44.5625L44.125 61.5312L46.6094 61.7969L47.1563 59.9219H50.9219L44.2969 67.5625L44.6406 69.375H55.1406L55.8906 65.1562L53.125 64.875ZM35.8438 66.9687C33.9844 66.9687 33.0156 65.4062 33.0156 63.2812C33.0156 61.1562 34.1094 59.6875 35.875 59.6875C37.6406 59.6875 38.8125 60.7812 38.8125 63.2187C38.8125 65.6562 37.6406 66.9687 35.8438 66.9687V66.9687ZM35.9375 57.0625C35.0733 56.9999 34.2057 57.1238 33.3936 57.4258C32.5815 57.7277 31.8437 58.2007 31.2303 58.8126C30.6168 59.4246 30.1421 60.1612 29.8382 60.9726C29.5343 61.784 29.4083 62.6513 29.4688 63.5156C29.4191 64.3437 29.5478 65.1728 29.8461 65.9468C30.1444 66.7209 30.6054 67.4219 31.1978 68.0025C31.7903 68.5831 32.5005 69.0298 33.2804 69.3124C34.0604 69.595 34.8919 69.707 35.7188 69.6406C36.5748 69.711 37.436 69.6005 38.2465 69.3164C39.0571 69.0323 39.7988 68.5809 40.4236 67.9915C41.0483 67.4021 41.5422 66.6879 41.873 65.8953C42.2038 65.1026 42.3642 64.2493 42.3438 63.3906C42.395 62.5395 42.2637 61.6873 41.9588 60.8911C41.6539 60.0948 41.1823 59.3729 40.5757 58.7737C39.9691 58.1745 39.2415 57.7119 38.4416 57.4168C37.6417 57.1216 36.7879 57.0009 35.9375 57.0625V57.0625ZM26.3594 66.7344V61.2344C26.3983 60.6792 26.3181 60.1221 26.1243 59.6004C25.9304 59.0787 25.6273 58.6044 25.2352 58.2094C24.8431 57.8144 24.3712 57.5077 23.8509 57.3099C23.3307 57.1121 22.7742 57.0277 22.2188 57.0625C21.3754 57.0278 20.5425 57.2597 19.8385 57.7253C19.1345 58.191 18.595 58.8666 18.2969 59.6562C18.0105 58.8554 17.4716 58.1694 16.7614 57.7016C16.0512 57.2338 15.2082 57.0095 14.3594 57.0625C13.6187 57.0337 12.8846 57.2114 12.2389 57.5756C11.5933 57.9398 11.0616 58.4762 10.7031 59.125V57.3125H5.71875V59.9219H7.28125V66.75H5.71875V69.375H13.0313V66.75H10.7344V62.5C10.7344 60.8125 11.4062 59.6406 13.0625 59.6406C14.4219 59.6406 15.125 60.4375 15.125 62.5312V69.375H20.1719V66.75H18.6094V62.5C18.6094 60.8125 19.2812 59.6406 20.9375 59.6406C22.2969 59.6406 23 60.4375 23 62.5312V69.2969H27.9687V66.7344H26.3594ZM0 75V47.4531H96.1719V75H0Z" fill="#BF77FF"/>
</g>
<defs>
<clipPath id="clip0">
<rect width="175" height="75" fill="white"/>
</clipPath>
</defs>
</svg>
