<svg width="150" height="150" viewBox="0 0 150 150" fill="none" xmlns="http://www.w3.org/2000/svg">
<path d="M128.451 26.2612H122.085C122.029 22.3364 121.467 18.262 119.571 14.588C118.21 11.9348 115.36 9.0814 111.042 9.0484C110.909 9.0418 110.809 9 110.67 9C102.211 9 99.8177 17.2412 99.7624 26.2612H96.4852C96.4299 22.3364 95.8674 18.262 93.9698 14.588C92.608 11.9348 89.7582 9.0814 85.4381 9.0484C85.3075 9.0418 85.2079 9 85.0684 9C76.612 9 74.2184 17.2412 74.1608 26.2612H70.8836C70.8283 22.3364 70.2659 18.262 68.3682 14.588C67.0064 11.9348 64.1566 9.0814 59.8366 9.0484C59.7059 9.0418 59.6063 9 59.4646 9C51.0082 9 48.6146 17.2412 48.557 26.2612H45.2799C45.2245 22.3364 44.6621 18.262 42.7666 14.588C41.4049 11.9348 38.5551 9.0814 34.235 9.0484C34.1044 9.0418 34.0047 9 33.8652 9C25.4089 9 23.0152 17.2412 22.9599 26.2612H21.5494C16.8285 26.2612 13 29.9726 13 34.5508V132.708C13 137.289 16.8285 141 21.5494 141H27.9509H122.049H128.451C133.171 141 137 137.289 137 132.708V34.5508C137 29.9726 133.171 26.2612 128.451 26.2612V26.2612ZM126.174 104.35V132.71C126.174 134.842 124.323 136.578 122.049 136.578H98.5844C111.133 130.341 120.882 118.164 126.174 104.35ZM111.768 14.4934C115.054 15.1446 115.656 23.1504 115.687 26.2612H106.627C106.658 17.6482 108.495 13.8466 111.768 14.4934V14.4934ZM86.1666 14.4934C89.4549 15.1424 90.0594 23.1504 90.0881 26.2612H81.0273C81.0561 17.6482 82.8895 13.8466 86.1666 14.4934ZM60.5629 14.4934C63.8511 15.1424 64.4556 23.1504 64.4844 26.2612H55.4235C55.4545 17.6482 57.2879 13.8466 60.5629 14.4934V14.4934ZM29.8241 26.2612C29.8551 17.6482 31.6908 13.8466 34.9635 14.4934C38.2495 15.1446 38.854 23.1504 38.885 26.2612H29.8241V26.2612ZM17.4286 132.708V34.5508C17.4286 32.419 19.2775 30.6832 21.5494 30.6832H23.1857C23.5821 34.2934 24.5763 38.4206 26.6976 41.2366C26.6954 41.318 26.6732 41.3928 26.6732 41.472C26.6732 44.904 29.5496 47.6892 33.0858 47.6892C36.6286 47.6892 39.5028 44.9018 39.5028 41.472C39.5028 38.0334 36.6264 35.2504 33.0858 35.2504C32.3108 35.2504 31.5756 35.4044 30.8892 35.6508C30.4619 34.2164 30.1806 32.4498 30.0124 30.6832H48.7851C49.2014 34.465 50.262 38.832 52.6003 41.6458C52.6977 44.992 55.5143 47.6892 59.0018 47.6892C62.5402 47.6892 65.4121 44.9018 65.4121 41.472C65.4121 38.0334 62.5402 35.2504 59.0018 35.2504C58.1205 35.2504 57.2835 35.4242 56.5174 35.7344C56.0767 34.2846 55.7844 32.4828 55.6161 30.6832H74.3911C74.8074 34.4606 75.8658 38.8254 78.2019 41.6392C78.2971 44.9898 81.1203 47.6892 84.5989 47.6892C88.1462 47.6892 91.0115 44.9018 91.0115 41.472C91.0115 38.0334 88.144 35.2504 84.5989 35.2504C83.7221 35.2504 82.8873 35.4242 82.1234 35.7344C81.6827 34.2846 81.3904 32.4828 81.2221 30.6832H99.9948C100.411 34.465 101.472 38.8342 103.812 41.6502C103.912 44.9964 106.731 47.6892 110.205 47.6892C113.752 47.6892 116.622 44.9018 116.622 41.472C116.622 38.0334 113.75 35.2504 110.205 35.2504C109.328 35.2504 108.493 35.4242 107.727 35.7344C107.286 34.2846 106.996 32.4828 106.828 30.6832H122.056C124.33 30.6832 126.181 32.419 126.181 34.5508V92.1842C124.361 95.2444 121.834 98.518 118.38 101.433V96.6084H23.4005V102.757H116.695C110.982 106.997 103.026 110.171 91.9747 110.171C91.9747 111.894 91.9016 113.507 91.7887 115.058H70.8881V121.207H91.0115C89.6409 128.634 87.0302 133.524 84.6919 136.576H21.5494C19.2775 136.576 17.4286 134.84 17.4286 132.708" fill="#BF77FF"/>
<path d="M23 60H118V66H23V60Z" fill="#BF77FF"/>
<path d="M23 78H118V84H23V78Z" fill="#BF77FF"/>
</svg>
