<?xml version="1.0" encoding="UTF-8"?>
<!-- Generator: Adobe Illustrator 23.0.1, SVG Export Plug-In . SVG Version: 6.00 Build 0)  -->
<svg version="1.1" id="Logo" xmlns="http://www.w3.org/2000/svg" xmlns:xlink="http://www.w3.org/1999/xlink" x="0px" y="0px" viewBox="0 0 1389 266" style="enable-background:new 0 0 1389 266;" xml:space="preserve">
<style type="text/css">
	.st0{fill:#00B3E3;}
	.st1{fill:#071C2C;}
</style>
<g id="icon">
	<path class="st0" d="M263,156.01L263,156.01c-8.25-39.46-28.32-74.82-58.04-102.26c-18.42-17-46.2-17-64.61,0.01   c-29.72,27.45-49.79,62.81-58.02,102.26C77.33,179.91,86.56,222,174.65,222S267.98,179.88,263,156.01z M230.7,200.62   c-13.79,5.45-31.21,9.47-54.85,9.73c-24.02,0.26-39.14-1.65-56.93-7.28c-20.82-6.59-33.6-22.84-28.52-46.35   c7.92-36.63,45.27-102.8,82.37-102.8s75.94,64.9,84.1,103.93C261.35,179.3,249.19,193.31,230.7,200.62z"/>
	<path class="st0" d="M126.7,170.27c-18.88-28.06-3.09-65-0.79-76.27c-16.32,26.19-36.24,68.81-24.79,84.92   C123.91,211,201.91,199,201.91,199S145.57,198.33,126.7,170.27z"/>
	<path class="st0" d="M205.86,95.98c-6.24-10.64-18.73-14.9-27.89-9.52c-9.16,5.38-11.52,18.36-5.27,28.99   c6.24,10.64,18.73,14.9,27.89,9.52C209.74,119.59,212.11,106.61,205.86,95.98z M195.28,120.63c-6.4,3.76-15.08,0.86-19.39-6.47   c-4.31-7.33-2.61-16.33,3.79-20.09c6.4-3.76,15.08-0.86,19.39,6.47C203.39,107.88,201.69,116.87,195.28,120.63z"/>
</g>
<g id="wordmark">
	<path class="st1" d="M637.92,77.18c-0.96-1.66-2.73-2.68-4.64-2.68h-4.45c-1.18,0-2.26,0.65-2.77,1.71l-38.8,77.22   c-0.81,1.62-3.13,1.62-3.94,0L544.5,76.21c-0.51-1.06-1.59-1.71-2.75-1.71h-4.48c-1.91,0-3.68,1.02-4.64,2.68l-4.93,8.53   c-0.83,1.48-0.9,3.28-0.11,4.81l46.17,90.87c0.76,1.46,2.26,2.38,3.91,2.38h15.23c1.66,0,3.17-0.93,3.91-2.38l46.2-90.87   c0.77-1.51,0.72-3.31-0.13-4.78L637.92,77.18z"/>
	<path class="st1" d="M417.14,77.17c-0.95-1.65-2.71-2.66-4.62-2.66h-4.47c-1.18,0-2.26,0.65-2.77,1.71l-38.79,77.22   c-0.81,1.62-3.13,1.62-3.94,0l-38.82-77.22c-0.51-1.06-1.59-1.71-2.75-1.71h-4.49c-1.9,0-3.66,1.01-4.62,2.66l-4.94,8.54   c-0.83,1.48-0.9,3.28-0.12,4.81l46.17,90.87c0.76,1.46,2.26,2.38,3.91,2.38h15.23c1.66,0,3.17-0.93,3.91-2.38l46.19-90.87   c0.77-1.51,0.73-3.31-0.13-4.78L417.14,77.17z"/>
	<path class="st1" d="M481.25,74.5h-6.91c-1.91,0-3.67,1.02-4.62,2.67l-4.92,8.55c-0.44,0.77-0.67,1.63-0.67,2.51v91.1   c0,2.45,1.98,4.43,4.43,4.43h12.75c2.42,0,4.39-1.97,4.39-4.39V78.94c0-1.23-0.5-2.34-1.3-3.14C483.58,75,482.47,74.5,481.25,74.5z   "/>
	<path class="st1" d="M708.17,93.89h60.3c1.66,0,3.01-1.36,3.01-3v-2c0-1.32-0.35-2.63-1.01-3.78l-4.66-8.01   c-0.94-1.62-2.66-2.61-4.53-2.61h-66.15c-1.91,0-3.67,1.02-4.62,2.67l-4.6,7.94c-0.66,1.15-1.01,2.45-1.01,3.78l-0.01,80.49   c0,1.33,0.35,2.64,1.02,3.8l4.6,7.94c0.95,1.65,2.72,2.67,4.62,2.67h66.15c1.87,0,3.6-0.99,4.53-2.61l4.66-8.03   c0.66-1.15,1.01-2.45,1.01-3.79v-2.01c0-1.64-1.34-2.98-3.01-2.98h-60.31c-1.22,0-2.2-0.99-2.2-2.2V140.7c0-1.22,0.99-2.2,2.2-2.2   H749c2,0,3.63-1.63,3.63-3.63v-12.02c0-1.99-1.61-3.6-3.6-3.63h-40.87c-1.22,0-2.2-0.99-2.2-2.2V96.1   C705.96,94.88,706.95,93.89,708.17,93.89z"/>
	<path class="st1" d="M897.41,83.19c-8.25-8.18-18.95-8.46-21.03-8.49l-51.56-0.02c-1.91,0-3.67,1.02-4.62,2.67l-4.92,8.55   c-0.44,0.77-0.67,1.63-0.67,2.51v91.1c0,2.45,1.98,4.43,4.43,4.43h12.75c2.42,0,4.39-1.97,4.39-4.39v-40.52h40.29   c14.73,0,29.6-10.13,29.6-32.75C906.06,94.28,901.36,87.1,897.41,83.19z M876.46,119.62h-40.29V94.11l40.31,0   c6.93,0,10.17,4.67,10.17,12.17C886.65,115.13,883.41,119.62,876.46,119.62z"/>
	<path class="st1" d="M995.55,183.85c-30.13,0-54.64-24.51-54.64-54.64c0-30.13,24.51-54.64,54.64-54.64   c30.13,0,54.64,24.51,54.64,54.64C1050.18,159.34,1025.67,183.85,995.55,183.85z M995.55,93.98c-19.43,0-35.23,15.8-35.23,35.23   c0,19.43,15.8,35.23,35.23,35.23s35.23-15.8,35.23-35.23C1030.77,109.79,1014.97,93.98,995.55,93.98z"/>
	<path class="st1" d="M1308.82,85.21l-4.66-8.01c-0.94-1.62-2.66-2.61-4.53-2.61h-21.45h-28.21h-21.37c-1.87,0-3.6,0.99-4.53,2.61   l-4.66,8.01c-0.66,1.15-1.01,2.45-1.01,3.78v2c0,1.64,1.34,3,3.01,3h28.56h3.34v85.54c0,2.45,1.98,4.43,4.43,4.43h12.75   c2.42,0,4.39-1.97,4.39-4.39V93.98h3.3h28.64c1.66,0,3.01-1.36,3.01-3v-2C1309.83,87.66,1309.48,86.36,1308.82,85.21z"/>
	<path class="st1" d="M1316.59,74.55v0.62h1.61v3.89h0.73v-3.89h1.57v-0.62H1316.59z M1325.25,74.55l-1.53,3.54h-0.04l-1.52-3.54   h-1.01v4.51h0.73l-0.04-3.5h0.04l1.51,3.5h0.62l1.52-3.5h0.04l-0.04,3.5h0.73v-4.51H1325.25z"/>
	<path class="st1" d="M1158.67,138.19c11.86-2.95,22.05-13.11,22.05-31.84c0-12-4.7-19.18-8.65-23.09   c-8.25-8.18-18.94-8.51-21.02-8.49l-51.56-0.02c-1.91,0-3.67,1.02-4.62,2.67l-4.92,8.55c-0.44,0.77-0.67,1.63-0.67,2.51v91.1   c0,2.45,1.98,4.43,4.43,4.43h12.75c2.42,0,4.39-1.97,4.39-4.39v-40.52h24.28c4.93,9.77,21.31,42.24,21.59,42.78   c0.95,1.83,1.91,2.07,3.77,2.04c0,0,15.39,0.03,17.76,0.03c1.83,0,2.86-1.67,2.14-3.02   C1179.99,180.22,1158.67,138.19,1158.67,138.19z M1110.83,94.19l40.31,0c6.93,0,10.17,4.67,10.17,12.17   c0,8.85-3.24,13.34-10.19,13.34h-40.29V94.19z"/>
</g>
</svg>